<svg width="85" height="161" viewBox="0 0 85 161" fill="none" xmlns="http://www.w3.org/2000/svg">
<path d="M81.0907 1.82394C80.189 1.148 79.1746 0.837346 78.1577 0.925743C77.1408 1.01414 76.1604 1.49821 75.3231 2.32531L2.73976 73.9503C2.00029 74.6859 1.39639 75.6652 0.97939 76.8048C0.562393 77.9444 0.344635 79.2107 0.344635 80.496C0.344635 81.7814 0.562393 83.0477 0.97939 84.1873C1.39639 85.3269 2.00029 86.3062 2.73976 87.0418L75.3231 158.667C76.1607 159.493 77.141 159.977 78.1577 160.066C79.1744 160.155 80.1888 159.846 81.0911 159.172C81.9933 158.498 82.7491 157.485 83.2766 156.243C83.804 155.001 84.083 153.577 84.0833 152.125V8.87502C84.0835 7.42233 83.8047 5.99728 83.2772 4.75434C82.7496 3.5114 81.9935 2.49799 81.0907 1.82394ZM72.9167 136.933L15.7266 80.5L72.9167 24.0675V136.933Z" fill="#9A853C"/>
</svg>
