<svg width="50" height="50" viewBox="0 0 50 50" fill="none" xmlns="http://www.w3.org/2000/svg">
    <path d="M47.5 0H10C8.67392 0 7.40215 0.526784 6.46447 1.46447C5.52678 2.40215 5 3.67392 5 5V12.5H0V17.5H5V22.5H0V27.5H5V32.5H0V37.5H5V45C5 46.3261 5.52678 47.5979 6.46447 48.5355C7.40215 49.4732 8.67392 50 10 50H47.5C48.163 50 48.7989 49.7366 49.2678 49.2678C49.7366 48.7989 50 48.163 50 47.5V2.5C50 1.83696 49.7366 1.20107 49.2678 0.732233C48.7989 0.263392 48.163 0 47.5 0ZM27.5 7.4975C31.62 7.4975 35 10.875 35 14.9975C34.9928 16.9846 34.2003 18.8883 32.7955 20.2937C31.3906 21.699 29.4871 22.4921 27.5 22.5C23.3825 22.5 20 19.1175 20 14.9975C20 10.875 23.3825 7.4975 27.5 7.4975ZM42.5 40H12.5V38.125C12.5 32.5775 19.2625 26.875 27.5 26.875C35.7375 26.875 42.5 32.5775 42.5 38.125V40Z" fill="white"/>
</svg>
