<svg width="30" height="32" viewBox="0 0 30 32" fill="none" xmlns="http://www.w3.org/2000/svg">
    <path d="M15.0417 19.1667C22.9806 19.1667 29.4167 22.4313 29.4167 26.4584V31.6667H0.666748V26.4584C0.666748 22.4313 7.10291 19.1667 15.0417 19.1667ZM27.5001 26.4584C27.5001 23.5834 21.9226 21.25 15.0417 21.25C8.16091 21.25 2.58341 23.5834 2.58341 26.4584V29.5834H27.5001V26.4584ZM15.0417 0.416687C16.8209 0.416687 18.5272 1.18491 19.7853 2.55237C21.0433 3.91982 21.7501 5.77448 21.7501 7.70835C21.7501 9.64222 21.0433 11.4969 19.7853 12.8643C18.5272 14.2318 16.8209 15 15.0417 15C13.2626 15 11.5563 14.2318 10.2982 12.8643C9.04018 11.4969 8.33341 9.64222 8.33341 7.70835C8.33341 5.77448 9.04018 3.91982 10.2982 2.55237C11.5563 1.18491 13.2626 0.416687 15.0417 0.416687ZM15.0417 2.50002C13.7709 2.50002 12.5521 3.04875 11.6535 4.02551C10.7549 5.00226 10.2501 6.32702 10.2501 7.70835C10.2501 9.08969 10.7549 10.4145 11.6535 11.3912C12.5521 12.368 13.7709 12.9167 15.0417 12.9167C16.3126 12.9167 17.5314 12.368 18.43 11.3912C19.3286 10.4145 19.8334 9.08969 19.8334 7.70835C19.8334 6.32702 19.3286 5.00226 18.43 4.02551C17.5314 3.04875 16.3126 2.50002 15.0417 2.50002Z" fill="#FFF9F9"/>
</svg>
